<?xml version="1.0" encoding="UTF-8"?>
<svg width="73px" height="58px" viewBox="0 0 73 58" version="1.1" xmlns="http://www.w3.org/2000/svg" xmlns:xlink="http://www.w3.org/1999/xlink">
    <title>Group 10</title>
    <defs>
        <path d="M0,0 L30.7531931,0 C42.2053697,1.44898297e-15 51.4891931,9.28382343 51.4891931,20.736 L51.4891931,29.0618413 L51.4891931,29.0618413 L20.736,29.0618413 C9.28382343,29.0618413 4.95520082e-15,19.7780179 0,8.32584135 L0,0 L0,0 Z" id="path-1"></path>
        <path d="M3.6362697,0 L25.0912294,0 C31.2944917,-1.1395208e-15 36.3232294,5.02873769 36.3232294,11.232 L36.3232294,46.5167366 L36.3232294,46.5167366 L0,46.5167366 L3.6362697,0 Z" id="path-3"></path>
        <path d="M5.47276243,33.7012946 L5.47276243,33.7012946 C2.45037977,33.7012946 0,31.2545492 0,28.2361195 L0,0 C6.04529594,0 10.9460555,4.89402053 10.9460555,10.9303501 L10.9460555,28.2361195 C10.9460555,31.2545492 8.49567571,33.7012946 5.47276243,33.7012946" id="path-5"></path>
        <path d="M2.0354623,4.66733172 C1.32880578,4.52341909 0.644324324,4.28577567 0,3.96064461 L0,0 L2.0354623,0 L2.0354623,4.66733172 L2.0354623,4.66733172 Z" id="path-7"></path>
        <path d="M2.0354623,3.96064461 C1.39111387,4.2856084 0.706633295,4.52308863 0,4.66684736 L0,0 L2.0354623,0 L2.0354623,3.96064461 Z" id="path-9"></path>
        <path d="M2.0354623,4.66733172 C1.32880578,4.52341909 0.644324324,4.28577567 0,3.96064461 L0,0 L2.0354623,0 L2.0354623,4.66733172 L2.0354623,4.66733172 Z" id="path-11"></path>
        <path d="M2.0354623,3.96064461 C1.39111387,4.2856084 0.706633295,4.52308863 0,4.66684736 L0,0 L2.0354623,0 L2.0354623,3.96064461 Z" id="path-13"></path>
    </defs>
    <g id="Screens-in-Progress" stroke="none" stroke-width="1" fill="none" fill-rule="evenodd">
        <g id="CouponFollow-Homepage" transform="translate(-1065.000000, -1524.000000)">
            <g id="Group-10" transform="translate(1065.000000, 1524.000000)">
                <g id="Group-5">
                    <g id="Group">
                        <mask id="mask-2" fill="white">
                            <use xlink:href="#path-1"></use>
                        </mask>
                        <use id="Mask" fill="#FFE7CF" xlink:href="#path-1"></use>
                        <g id="Group-2" mask="url(#mask-2)" fill="#FFB500">
                            <g transform="translate(10.620021, 12.670630)">
                                <path d="M2.62625141,1.05931041 C2.62625141,1.64404975 2.15562715,2.11862082 1.57575084,2.11862082 C0.995874533,2.11862082 0.525250281,1.64404975 0.525250281,1.05931041 C0.525250281,0.474571063 0.995874533,0 1.57575084,0 C2.15562715,0 2.62625141,0.474571063 2.62625141,1.05931041" id="Fill-24"></path>
                                <path d="M6.30300337,4.23724163 C6.30300337,4.82198098 5.83237912,5.29655204 5.25250281,5.29655204 C4.6726265,5.29655204 4.20200225,4.82198098 4.20200225,4.23724163 C4.20200225,3.65250229 4.6726265,3.17793122 5.25250281,3.17793122 C5.83237912,3.17793122 6.30300337,3.65250229 6.30300337,4.23724163" id="Fill-26"></path>
                                <path d="M2.10100112,5.29655204 C2.10100112,5.88129138 1.63037687,6.35586245 1.05050056,6.35586245 C0.470624252,6.35586245 0,5.88129138 0,5.29655204 C0,4.71181269 0.470624252,4.23724163 1.05050056,4.23724163 C1.63037687,4.23724163 2.10100112,4.71181269 2.10100112,5.29655204" id="Fill-28"></path>
                            </g>
                        </g>
                        <path d="M-7.67196406,2.51663534 C-7.67196406,-2.75697676 -3.50181668,-7.0318688 1.6422455,-7.0318688 C6.78664201,-7.0318688 10.9571237,-2.75697676 10.9571237,2.51663534 C10.9571237,7.79024744 6.78664201,12.0651395 1.6422455,12.0651395 C-3.50181668,12.0651395 -7.67196406,7.79024744 -7.67196406,2.51663534" id="Fill-16" fill="#485065" mask="url(#mask-2)"></path>
                    </g>
                    <g id="Group-4" transform="translate(27.893629, 0.000000)">
                        <g id="Group-6">
                            <mask id="mask-4" fill="white">
                                <use xlink:href="#path-3"></use>
                            </mask>
                            <use id="Mask" fill="#FFB500" xlink:href="#path-3"></use>
                        </g>
                        <g id="Group-16" transform="translate(8.640556, 5.914085)">
                            <path d="M6.9250072,19.3640181 C6.9250072,19.3640181 18.2704133,18.2199629 19.688589,7.63745191 C19.688589,7.63745191 20.5394945,12.4996867 17.1358727,15.9318524 C13.1247044,19.9766597 6.9250072,19.3640181 6.9250072,19.3640181" id="Fill-48" fill="#564100"></path>
                            <path d="M0.0163523869,0 C0.0163523869,0 -0.478307318,6.98274116 3.97363002,6.98274116 C8.42443283,6.98274116 8.42443283,0 8.42443283,0 C8.42443283,0 6.94102098,4.98750882 3.97363002,4.98750882 C1.0056718,4.98750882 0.0163523869,0 0.0163523869,0" id="Fill-44" fill="#61372D"></path>
                            <path d="M10.8975612,0 C10.8975612,0 10.4029015,6.98274116 14.8548388,6.98274116 C19.3056416,6.98274116 19.3056416,0 19.3056416,0 C19.3056416,0 17.8222298,4.98750882 14.8548388,4.98750882 C11.8868806,4.98750882 10.8975612,0 10.8975612,0" id="Fill-46" fill="#61372D"></path>
                        </g>
                    </g>
                    <g id="Group-3" transform="translate(62.053945, 12.647992)">
                        <mask id="mask-6" fill="white">
                            <use xlink:href="#path-5"></use>
                        </mask>
                        <use id="Mask" fill="#485065" xlink:href="#path-5"></use>
                        <g id="Group-23" mask="url(#mask-6)">
                            <g transform="translate(-35.491278, -21.061635)">
                                <path d="M34.9584373,49.0649089 C34.9584373,52.0829105 37.409823,54.5293089 40.4327918,54.5293089 L40.4327918,54.5293089 C43.4562913,54.5293089 45.9071463,52.0829105 45.9071463,49.0649089 L45.9071463,49.0649089 L45.9071463,31.7621232 C45.9071463,25.7261199 41.0054364,20.8333231 34.9584373,20.8333231 L34.9584373,20.8333231 L34.9584373,49.0649089 Z" id="Clip-22" fill="none"></path>
                                <path d="M64.4822177,0 L43.2535041,0 L43.2535041,44.8599961 C43.2535041,48.9030694 39.9694221,52.1806499 35.9195142,52.1806499 L0,52.1806499 L0,73.3707616 L59.9711161,73.3707616 L59.9711161,68.8678628 L64.4822177,68.8678628 L64.4822177,0 Z" id="Fill-21" fill="#353B49" fill-rule="evenodd"></path>
                            </g>
                        </g>
                    </g>
                </g>
                <g id="Group-7" transform="translate(41.468418, 49.631643) rotate(-90.000000) translate(-41.468418, -49.631643) translate(33.134942, 20.838351)">
                    <g id="Group-8" transform="translate(8.333476, 9.359779) rotate(-270.000000) translate(-8.333476, -9.359779) translate(-0.987289, 0.991422)">
                        <path d="M10.4456852,16.7367144 C5.91916807,16.7367144 2.2498399,13.0502199 2.2498399,8.50252605 C2.2498399,7.43902185 2.4504672,6.50210878 2.81576823,5.69073408 L17.9684341,5.4656155 C18.4014799,6.3273712 18.6415306,7.33921544 18.6415306,8.50252605 C18.6415306,13.0502199 14.9722024,16.7367144 10.4456852,16.7367144 Z" id="Shape" fill="#000000" fill-rule="nonzero" opacity="0.100000001"></path>
                        <g id="Group-9" transform="translate(8.195845, 7.507642) scale(-1, -1) translate(-8.195845, -7.507642) ">
                            <path d="M16.3916907,8.23418838 C16.3916907,3.68649457 12.7223625,0 8.19584534,0 C3.66932817,0 0,3.68649457 0,8.23418838 C0,12.7823666 3.66932817,15.0152847 8.19584534,15.0152847 C12.7223625,15.0152847 16.3916907,12.7823666 16.3916907,8.23418838" id="Shape" fill="#FFE5CD" fill-rule="nonzero"></path>
                            <g id="Group" transform="translate(4.526517, 0.163231)">
                                <g transform="translate(1.017731, 2.333666) scale(-1, 1) rotate(-180.000000) translate(-1.017731, -2.333666) " id="Clipped">
                                    <g transform="translate(0.000000, 0.000000)">
                                        <mask id="mask-8" fill="white">
                                            <use xlink:href="#path-7"></use>
                                        </mask>
                                        <g id="l"></g>
                                        <path d="M1.01773115,7.15793164 C0.747856407,7.15806002 0.488991261,7.05044121 0.298115776,6.85876359 C0.107240291,6.66708596 0,6.40706078 0,6.13592344 L0,1.02297682 C0,0.458269828 0.455653756,0.000484364023 1.01773115,0.000484364023 C1.57980854,0.000484364023 2.0354623,0.458269828 2.0354623,1.02297682 L2.0354623,6.13592344 C2.0354623,6.40706078 1.928222,6.66708596 1.73734652,6.85876359 C1.54647103,7.05044121 1.28760589,7.15806002 1.01773115,7.15793164" id="Shape" fill="#FFC266" fill-rule="nonzero" mask="url(#mask-8)"></path>
                                    </g>
                                </g>
                                <g transform="translate(6.320925, 2.333424) scale(-1, 1) rotate(-180.000000) translate(-6.320925, -2.333424) translate(5.303194, 0.000000)" id="Clipped">
                                    <g transform="translate(0.000000, 0.000000)">
                                        <mask id="mask-10" fill="white">
                                            <use xlink:href="#path-9"></use>
                                        </mask>
                                        <g id="n"></g>
                                        <path d="M1.01773115,7.15744727 C0.747856407,7.15757566 0.488991261,7.04995685 0.298115776,6.85827922 C0.107240291,6.6666016 0,6.40657641 0,6.13543907 L0,1.02249245 C0,0.457785464 0.455653756,0 1.01773115,0 C1.57980854,0 2.0354623,0.457785464 2.0354623,1.02249245 L2.0354623,6.13543907 C2.0354623,6.40657641 1.928222,6.6666016 1.73734652,6.85827922 C1.54647103,7.04995685 1.28760589,7.15757566 1.01773115,7.15744727" id="Shape" fill="#FFC266" fill-rule="nonzero" mask="url(#mask-10)"></path>
                                    </g>
                                </g>
                            </g>
                        </g>
                    </g>
                    <g id="Group-8" transform="translate(8.333476, 48.226805) rotate(-270.000000) translate(-8.333476, -48.226805) translate(-0.987289, 39.858448)">
                        <path d="M10.4456852,16.7367144 C5.91916807,16.7367144 2.2498399,13.0502199 2.2498399,8.50252605 C2.2498399,7.43902185 2.4504672,6.50210878 2.81576823,5.69073408 L17.9684341,5.4656155 C18.4014799,6.3273712 18.6415306,7.33921544 18.6415306,8.50252605 C18.6415306,13.0502199 14.9722024,16.7367144 10.4456852,16.7367144 Z" id="Shape" fill="#000000" fill-rule="nonzero" opacity="0.100000001"></path>
                        <g id="Group-9" transform="translate(8.195845, 7.507642) scale(-1, -1) translate(-8.195845, -7.507642) ">
                            <path d="M16.3916907,8.23418838 C16.3916907,3.68649457 12.7223625,0 8.19584534,0 C3.66932817,0 0,3.68649457 0,8.23418838 C0,12.7823666 3.66932817,15.0152847 8.19584534,15.0152847 C12.7223625,15.0152847 16.3916907,12.7823666 16.3916907,8.23418838" id="Shape" fill="#FFE5CD" fill-rule="nonzero"></path>
                            <g id="Group" transform="translate(4.526517, 0.163231)">
                                <g transform="translate(1.017731, 2.333666) scale(-1, 1) rotate(-180.000000) translate(-1.017731, -2.333666) " id="Clipped">
                                    <g transform="translate(0.000000, 0.000000)">
                                        <mask id="mask-12" fill="white">
                                            <use xlink:href="#path-11"></use>
                                        </mask>
                                        <g id="l"></g>
                                        <path d="M1.01773115,7.15793164 C0.747856407,7.15806002 0.488991261,7.05044121 0.298115776,6.85876359 C0.107240291,6.66708596 0,6.40706078 0,6.13592344 L0,1.02297682 C0,0.458269828 0.455653756,0.000484364023 1.01773115,0.000484364023 C1.57980854,0.000484364023 2.0354623,0.458269828 2.0354623,1.02297682 L2.0354623,6.13592344 C2.0354623,6.40706078 1.928222,6.66708596 1.73734652,6.85876359 C1.54647103,7.05044121 1.28760589,7.15806002 1.01773115,7.15793164" id="Shape" fill="#FFC266" fill-rule="nonzero" mask="url(#mask-12)"></path>
                                    </g>
                                </g>
                                <g transform="translate(6.320925, 2.333424) scale(-1, 1) rotate(-180.000000) translate(-6.320925, -2.333424) translate(5.303194, 0.000000)" id="Clipped">
                                    <g transform="translate(0.000000, 0.000000)">
                                        <mask id="mask-14" fill="white">
                                            <use xlink:href="#path-13"></use>
                                        </mask>
                                        <g id="n"></g>
                                        <path d="M1.01773115,7.15744727 C0.747856407,7.15757566 0.488991261,7.04995685 0.298115776,6.85827922 C0.107240291,6.6666016 0,6.40657641 0,6.13543907 L0,1.02249245 C0,0.457785464 0.455653756,0 1.01773115,0 C1.57980854,0 2.0354623,0.457785464 2.0354623,1.02249245 L2.0354623,6.13543907 C2.0354623,6.40657641 1.928222,6.6666016 1.73734652,6.85827922 C1.54647103,7.04995685 1.28760589,7.15757566 1.01773115,7.15744727" id="Shape" fill="#FFC266" fill-rule="nonzero" mask="url(#mask-14)"></path>
                                    </g>
                                </g>
                            </g>
                        </g>
                    </g>
                </g>
            </g>
        </g>
    </g>
</svg>